STARTFONT 2.1
FONT NatRailSmall9
SIZE 9 75 75
FONTBOUNDINGBOX 7 9 0 0
STARTPROPERTIES 2
FONT_ASCENT 9
FONT_DESCENT 0
ENDPROPERTIES
CHARS 145
STARTCHAR U+0020
ENCODING 32
SWIDTH 444 0
DWIDTH 4 0
BBX 0 0 0 9
BITMAP
ENDCHAR
STARTCHAR U+0021
ENCODING 33
SWIDTH 222 0
DWIDTH 2 0
BBX 1 7 0 2
BITMAP
80
80
80
80
80
00
80
ENDCHAR
STARTCHAR U+0022
ENCODING 34
SWIDTH 444 0
DWIDTH 4 0
BBX 3 3 0 6
BITMAP
A0
A0
A0
ENDCHAR
STARTCHAR U+0023
ENCODING 35
SWIDTH 666 0
DWIDTH 6 0
BBX 5 7 0 2
BITMAP
50
50
F8
50
F8
50
50
ENDCHAR
STARTCHAR U+0024
ENCODING 36
SWIDTH 666 0
DWIDTH 6 0
BBX 5 7 0 2
BITMAP
20
70
A0
70
28
70
20
ENDCHAR
STARTCHAR U+0025
ENCODING 37
SWIDTH 555 0
DWIDTH 5 0
BBX 4 7 0 2
BITMAP
90
B0
20
60
40
D0
90
ENDCHAR
STARTCHAR U+0026
ENCODING 38
SWIDTH 666 0
DWIDTH 6 0
BBX 5 7 0 2
BITMAP
60
90
60
A8
90
90
68
ENDCHAR
STARTCHAR U+0027
ENCODING 39
SWIDTH 222 0
DWIDTH 2 0
BBX 1 3 0 6
BITMAP
80
80
80
ENDCHAR
STARTCHAR U+0028
ENCODING 40
SWIDTH 444 0
DWIDTH 4 0
BBX 3 7 0 2
BITMAP
20
40
80
80
80
40
20
ENDCHAR
STARTCHAR U+0029
ENCODING 41
SWIDTH 444 0
DWIDTH 4 0
BBX 3 7 0 2
BITMAP
80
40
20
20
20
40
80
ENDCHAR
STARTCHAR U+002A
ENCODING 42
SWIDTH 666 0
DWIDTH 6 0
BBX 5 5 0 3
BITMAP
A8
70
D8
70
A8
ENDCHAR
STARTCHAR U+002B
ENCODING 43
SWIDTH 666 0
DWIDTH 6 0
BBX 5 5 0 3
BITMAP
20
20
F8
20
20
ENDCHAR
STARTCHAR U+002C
ENCODING 44
SWIDTH 333 0
DWIDTH 3 0
BBX 2 3 0 0
BITMAP
40
40
80
ENDCHAR
STARTCHAR U+002D
ENCODING 45
SWIDTH 444 0
DWIDTH 4 0
BBX 3 1 0 5
BITMAP
E0
ENDCHAR
STARTCHAR U+002E
ENCODING 46
SWIDTH 222 0
DWIDTH 2 0
BBX 1 1 0 2
BITMAP
80
ENDCHAR
STARTCHAR U+002F
ENCODING 47
SWIDTH 555 0
DWIDTH 5 0
BBX 4 7 0 2
BITMAP
10
30
20
60
40
C0
80
ENDCHAR
STARTCHAR U+0030
ENCODING 48
SWIDTH 666 0
DWIDTH 6 0
BBX 5 7 0 2
BITMAP
70
88
88
88
88
88
70
ENDCHAR
STARTCHAR U+0031
ENCODING 49
SWIDTH 666 0
DWIDTH 6 0
BBX 3 7 1 2
BITMAP
40
C0
40
40
40
40
E0
ENDCHAR
STARTCHAR U+0032
ENCODING 50
SWIDTH 666 0
DWIDTH 6 0
BBX 5 7 0 2
BITMAP
70
88
08
10
20
40
F8
ENDCHAR
STARTCHAR U+0033
ENCODING 51
SWIDTH 666 0
DWIDTH 6 0
BBX 5 7 0 2
BITMAP
70
88
08
30
08
88
70
ENDCHAR
STARTCHAR U+0034
ENCODING 52
SWIDTH 666 0
DWIDTH 6 0
BBX 5 7 0 2
BITMAP
10
30
50
90
F8
10
10
ENDCHAR
STARTCHAR U+0035
ENCODING 53
SWIDTH 666 0
DWIDTH 6 0
BBX 5 7 0 2
BITMAP
F8
80
F0
08
08
88
70
ENDCHAR
STARTCHAR U+0036
ENCODING 54
SWIDTH 666 0
DWIDTH 6 0
BBX 5 7 0 2
BITMAP
70
88
80
F0
88
88
70
ENDCHAR
STARTCHAR U+0037
ENCODING 55
SWIDTH 666 0
DWIDTH 6 0
BBX 5 7 0 2
BITMAP
F8
08
10
20
20
20
20
ENDCHAR
STARTCHAR U+0038
ENCODING 56
SWIDTH 666 0
DWIDTH 6 0
BBX 5 7 0 2
BITMAP
70
88
88
70
88
88
70
ENDCHAR
STARTCHAR U+0039
ENCODING 57
SWIDTH 666 0
DWIDTH 6 0
BBX 5 7 0 2
BITMAP
70
88
88
78
08
88
70
ENDCHAR
STARTCHAR U+003A
ENCODING 58
SWIDTH 222 0
DWIDTH 2 0
BBX 1 4 0 3
BITMAP
80
00
00
80
ENDCHAR
STARTCHAR U+003B
ENCODING 59
SWIDTH 333 0
DWIDTH 3 0
BBX 2 5 0 2
BITMAP
40
00
00
40
80
ENDCHAR
STARTCHAR U+003C
ENCODING 60
SWIDTH 555 0
DWIDTH 5 0
BBX 4 7 0 2
BITMAP
10
20
40
80
40
20
10
ENDCHAR
STARTCHAR U+003D
ENCODING 61
SWIDTH 555 0
DWIDTH 5 0
BBX 4 3 0 4
BITMAP
F0
00
F0
ENDCHAR
STARTCHAR U+003E
ENCODING 62
SWIDTH 555 0
DWIDTH 5 0
BBX 4 7 0 2
BITMAP
80
40
20
10
20
40
80
ENDCHAR
STARTCHAR U+003F
ENCODING 63
SWIDTH 666 0
DWIDTH 6 0
BBX 5 7 0 2
BITMAP
70
88
08
30
20
00
20
ENDCHAR
STARTCHAR U+0040
ENCODING 64
SWIDTH 666 0
DWIDTH 6 0
BBX 5 7 0 2
BITMAP
70
88
88
A8
B8
80
70
ENDCHAR
STARTCHAR U+0041
ENCODING 65
SWIDTH 666 0
DWIDTH 6 0
BBX 5 7 0 2
BITMAP
70
88
88
F8
88
88
88
ENDCHAR
STARTCHAR U+0042
ENCODING 66
SWIDTH 666 0
DWIDTH 6 0
BBX 5 7 0 2
BITMAP
F0
88
88
F0
88
88
F0
ENDCHAR
STARTCHAR U+0043
ENCODING 67
SWIDTH 666 0
DWIDTH 6 0
BBX 5 7 0 2
BITMAP
70
88
80
80
80
88
70
ENDCHAR
STARTCHAR U+0044
ENCODING 68
SWIDTH 666 0
DWIDTH 6 0
BBX 5 7 0 2
BITMAP
F0
88
88
88
88
88
F0
ENDCHAR
STARTCHAR U+0045
ENCODING 69
SWIDTH 666 0
DWIDTH 6 0
BBX 5 7 0 2
BITMAP
F8
80
80
F0
80
80
F8
ENDCHAR
STARTCHAR U+0046
ENCODING 70
SWIDTH 666 0
DWIDTH 6 0
BBX 5 7 0 2
BITMAP
F8
80
80
F0
80
80
80
ENDCHAR
STARTCHAR U+0047
ENCODING 71
SWIDTH 666 0
DWIDTH 6 0
BBX 5 7 0 2
BITMAP
70
88
80
B8
88
88
70
ENDCHAR
STARTCHAR U+0048
ENCODING 72
SWIDTH 666 0
DWIDTH 6 0
BBX 5 7 0 2
BITMAP
88
88
88
F8
88
88
88
ENDCHAR
STARTCHAR U+0049
ENCODING 73
SWIDTH 444 0
DWIDTH 4 0
BBX 3 7 0 2
BITMAP
E0
40
40
40
40
40
E0
ENDCHAR
STARTCHAR U+004A
ENCODING 74
SWIDTH 666 0
DWIDTH 6 0
BBX 5 7 0 2
BITMAP
08
08
08
08
08
88
70
ENDCHAR
STARTCHAR U+004B
ENCODING 75
SWIDTH 666 0
DWIDTH 6 0
BBX 5 7 0 2
BITMAP
88
90
A0
C0
A0
90
88
ENDCHAR
STARTCHAR U+004C
ENCODING 76
SWIDTH 666 0
DWIDTH 6 0
BBX 5 7 0 2
BITMAP
80
80
80
80
80
80
F8
ENDCHAR
STARTCHAR U+004D
ENCODING 77
SWIDTH 666 0
DWIDTH 6 0
BBX 5 7 0 2
BITMAP
88
D8
A8
88
88
88
88
ENDCHAR
STARTCHAR U+004E
ENCODING 78
SWIDTH 666 0
DWIDTH 6 0
BBX 5 7 0 2
BITMAP
88
C8
A8
98
88
88
88
ENDCHAR
STARTCHAR U+004F
ENCODING 79
SWIDTH 666 0
DWIDTH 6 0
BBX 5 7 0 2
BITMAP
70
88
88
88
88
88
70
ENDCHAR
STARTCHAR U+0050
ENCODING 80
SWIDTH 666 0
DWIDTH 6 0
BBX 5 7 0 2
BITMAP
F0
88
88
F0
80
80
80
ENDCHAR
STARTCHAR U+0051
ENCODING 81
SWIDTH 666 0
DWIDTH 6 0
BBX 5 9 0 0
BITMAP
70
88
88
88
88
88
70
10
08
ENDCHAR
STARTCHAR U+0052
ENCODING 82
SWIDTH 666 0
DWIDTH 6 0
BBX 5 7 0 2
BITMAP
F0
88
88
F0
A0
90
88
ENDCHAR
STARTCHAR U+0053
ENCODING 83
SWIDTH 666 0
DWIDTH 6 0
BBX 5 7 0 2
BITMAP
70
88
80
70
08
88
70
ENDCHAR
STARTCHAR U+0054
ENCODING 84
SWIDTH 666 0
DWIDTH 6 0
BBX 5 7 0 2
BITMAP
F8
20
20
20
20
20
20
ENDCHAR
STARTCHAR U+0055
ENCODING 85
SWIDTH 666 0
DWIDTH 6 0
BBX 5 7 0 2
BITMAP
88
88
88
88
88
88
70
ENDCHAR
STARTCHAR U+0056
ENCODING 86
SWIDTH 666 0
DWIDTH 6 0
BBX 5 7 0 2
BITMAP
88
88
88
88
88
50
20
ENDCHAR
STARTCHAR U+0057
ENCODING 87
SWIDTH 666 0
DWIDTH 6 0
BBX 5 7 0 2
BITMAP
88
88
88
A8
A8
D8
88
ENDCHAR
STARTCHAR U+0058
ENCODING 88
SWIDTH 666 0
DWIDTH 6 0
BBX 5 7 0 2
BITMAP
88
88
50
20
50
88
88
ENDCHAR
STARTCHAR U+0059
ENCODING 89
SWIDTH 666 0
DWIDTH 6 0
BBX 5 7 0 2
BITMAP
88
88
50
20
20
20
20
ENDCHAR
STARTCHAR U+005A
ENCODING 90
SWIDTH 666 0
DWIDTH 6 0
BBX 5 7 0 2
BITMAP
F8
08
10
20
40
80
F8
ENDCHAR
STARTCHAR U+005B
ENCODING 91
SWIDTH 333 0
DWIDTH 3 0
BBX 2 7 0 2
BITMAP
C0
80
80
80
80
80
C0
ENDCHAR
STARTCHAR U+005C
ENCODING 92
SWIDTH 555 0
DWIDTH 5 0
BBX 4 7 0 2
BITMAP
80
C0
40
60
20
30
10
ENDCHAR
STARTCHAR U+005D
ENCODING 93
SWIDTH 1000 0
DWIDTH 9 0
BBX 2 7 0 2
BITMAP
C0
40
40
40
40
40
C0
ENDCHAR
STARTCHAR U+005E
ENCODING 94
SWIDTH 444 0
DWIDTH 4 0
BBX 3 2 0 7
BITMAP
40
A0
ENDCHAR
STARTCHAR U+005F
ENCODING 95
SWIDTH 555 0
DWIDTH 5 0
BBX 4 1 0 1
BITMAP
F0
ENDCHAR
STARTCHAR U+0060
ENCODING 96
SWIDTH 333 0
DWIDTH 3 0
BBX 2 2 0 7
BITMAP
80
40
ENDCHAR
STARTCHAR U+0061
ENCODING 97
SWIDTH 666 0
DWIDTH 6 0
BBX 5 5 0 2
BITMAP
70
08
78
88
78
ENDCHAR
STARTCHAR U+0062
ENCODING 98
SWIDTH 666 0
DWIDTH 6 0
BBX 5 7 0 2
BITMAP
80
80
B0
C8
88
88
F0
ENDCHAR
STARTCHAR U+0063
ENCODING 99
SWIDTH 666 0
DWIDTH 6 0
BBX 5 5 0 2
BITMAP
78
80
80
80
78
ENDCHAR
STARTCHAR U+0064
ENCODING 100
SWIDTH 666 0
DWIDTH 6 0
BBX 5 7 0 2
BITMAP
08
08
68
98
88
88
78
ENDCHAR
STARTCHAR U+0065
ENCODING 101
SWIDTH 666 0
DWIDTH 6 0
BBX 5 5 0 2
BITMAP
70
88
F8
80
78
ENDCHAR
STARTCHAR U+0066
ENCODING 102
SWIDTH 555 0
DWIDTH 5 0
BBX 4 7 0 2
BITMAP
20
50
40
E0
40
40
40
ENDCHAR
STARTCHAR U+0067
ENCODING 103
SWIDTH 666 0
DWIDTH 6 0
BBX 5 7 0 0
BITMAP
78
88
88
88
78
08
F0
ENDCHAR
STARTCHAR U+0068
ENCODING 104
SWIDTH 666 0
DWIDTH 6 0
BBX 5 7 0 2
BITMAP
80
80
B0
C8
88
88
88
ENDCHAR
STARTCHAR U+0069
ENCODING 105
SWIDTH 444 0
DWIDTH 4 0
BBX 3 7 0 2
BITMAP
40
00
C0
40
40
40
E0
ENDCHAR
STARTCHAR U+006A
ENCODING 106
SWIDTH 555 0
DWIDTH 5 0
BBX 4 9 0 0
BITMAP
10
00
10
10
10
10
10
90
60
ENDCHAR
STARTCHAR U+006B
ENCODING 107
SWIDTH 555 0
DWIDTH 5 0
BBX 4 7 0 2
BITMAP
80
80
90
A0
C0
A0
90
ENDCHAR
STARTCHAR U+006C
ENCODING 108
SWIDTH 444 0
DWIDTH 4 0
BBX 3 7 0 2
BITMAP
C0
40
40
40
40
40
E0
ENDCHAR
STARTCHAR U+006D
ENCODING 109
SWIDTH 666 0
DWIDTH 6 0
BBX 5 5 0 2
BITMAP
50
A8
A8
88
88
ENDCHAR
STARTCHAR U+006E
ENCODING 110
SWIDTH 666 0
DWIDTH 6 0
BBX 5 5 0 2
BITMAP
B0
C8
88
88
88
ENDCHAR
STARTCHAR U+006F
ENCODING 111
SWIDTH 666 0
DWIDTH 6 0
BBX 5 5 0 2
BITMAP
70
88
88
88
70
ENDCHAR
STARTCHAR U+0070
ENCODING 112
SWIDTH 666 0
DWIDTH 6 0
BBX 5 7 0 0
BITMAP
F0
88
88
88
F0
80
80
ENDCHAR
STARTCHAR U+0071
ENCODING 113
SWIDTH 666 0
DWIDTH 6 0
BBX 5 7 0 0
BITMAP
78
88
88
88
78
08
08
ENDCHAR
STARTCHAR U+0072
ENCODING 114
SWIDTH 666 0
DWIDTH 6 0
BBX 5 5 0 2
BITMAP
B0
C8
80
80
80
ENDCHAR
STARTCHAR U+0073
ENCODING 115
SWIDTH 666 0
DWIDTH 6 0
BBX 5 5 0 2
BITMAP
78
80
70
08
F0
ENDCHAR
STARTCHAR U+0074
ENCODING 116
SWIDTH 555 0
DWIDTH 5 0
BBX 4 7 0 2
BITMAP
40
40
F0
40
40
40
30
ENDCHAR
STARTCHAR U+0075
ENCODING 117
SWIDTH 666 0
DWIDTH 6 0
BBX 5 5 0 2
BITMAP
88
88
88
98
68
ENDCHAR
STARTCHAR U+0076
ENCODING 118
SWIDTH 666 0
DWIDTH 6 0
BBX 5 5 0 2
BITMAP
88
88
88
50
20
ENDCHAR
STARTCHAR U+0077
ENCODING 119
SWIDTH 666 0
DWIDTH 6 0
BBX 5 5 0 2
BITMAP
88
A8
A8
A8
50
ENDCHAR
STARTCHAR U+0078
ENCODING 120
SWIDTH 666 0
DWIDTH 6 0
BBX 5 5 0 2
BITMAP
88
50
20
50
88
ENDCHAR
STARTCHAR U+0079
ENCODING 121
SWIDTH 666 0
DWIDTH 6 0
BBX 5 7 0 0
BITMAP
88
88
88
88
78
08
F0
ENDCHAR
STARTCHAR U+007A
ENCODING 122
SWIDTH 666 0
DWIDTH 6 0
BBX 5 5 0 2
BITMAP
F8
10
20
40
F8
ENDCHAR
STARTCHAR U+007B
ENCODING 123
SWIDTH 444 0
DWIDTH 4 0
BBX 3 7 0 2
BITMAP
20
40
40
80
40
40
20
ENDCHAR
STARTCHAR U+007C
ENCODING 124
SWIDTH 222 0
DWIDTH 2 0
BBX 1 7 0 2
BITMAP
80
80
80
80
80
80
80
ENDCHAR
STARTCHAR U+007D
ENCODING 125
SWIDTH 444 0
DWIDTH 4 0
BBX 3 7 0 2
BITMAP
80
40
40
20
40
40
80
ENDCHAR
STARTCHAR U+007E
ENCODING 126
SWIDTH 666 0
DWIDTH 6 0
BBX 5 2 0 5
BITMAP
68
90
ENDCHAR
STARTCHAR U+0020
ENCODING 32
SWIDTH 666 0
DWIDTH 6 0
BBX 5 7 0 2
BITMAP
A0
40
A8
08
28
28
A8
ENDCHAR
STARTCHAR U+0080
ENCODING 128
SWIDTH 0 0
DWIDTH 0 0
BBX 0 0 0 0
BITMAP
ENDCHAR
STARTCHAR U+0081
ENCODING 129
SWIDTH 888 0
DWIDTH 8 0
BBX 5 6 1 2
BITMAP
10
F8
10
40
F8
40
ENDCHAR
STARTCHAR U+0082
ENCODING 130
SWIDTH 333 0
DWIDTH 3 0
BBX 2 4 0 0
BITMAP
40
40
40
80
ENDCHAR
STARTCHAR U+0083
ENCODING 131
SWIDTH 0 0
DWIDTH 0 0
BBX 0 0 0 0
BITMAP
ENDCHAR
STARTCHAR U+0084
ENCODING 132
SWIDTH 555 0
DWIDTH 5 0
BBX 4 4 0 0
BITMAP
50
50
50
A0
ENDCHAR
STARTCHAR U+0085
ENCODING 133
SWIDTH 666 0
DWIDTH 6 0
BBX 5 1 0 2
BITMAP
A8
ENDCHAR
STARTCHAR U+0086
ENCODING 134
SWIDTH 777 0
DWIDTH 7 0
BBX 6 7 0 2
BITMAP
78
84
84
84
FC
FC
48
ENDCHAR
STARTCHAR U+0087
ENCODING 135
SWIDTH 0 0
DWIDTH 0 0
BBX 0 0 0 0
BITMAP
ENDCHAR
STARTCHAR U+0088
ENCODING 136
SWIDTH 0 0
DWIDTH 0 0
BBX 0 0 0 0
BITMAP
ENDCHAR
STARTCHAR U+0089
ENCODING 137
SWIDTH 0 0
DWIDTH 0 0
BBX 0 0 0 0
BITMAP
ENDCHAR
STARTCHAR U+008A
ENCODING 138
SWIDTH 0 0
DWIDTH 0 0
BBX 0 0 0 0
BITMAP
ENDCHAR
STARTCHAR U+008B
ENCODING 139
SWIDTH 0 0
DWIDTH 0 0
BBX 0 0 0 0
BITMAP
ENDCHAR
STARTCHAR U+008C
ENCODING 140
SWIDTH 0 0
DWIDTH 0 0
BBX 0 0 0 0
BITMAP
ENDCHAR
STARTCHAR U+008D
ENCODING 141
SWIDTH 777 0
DWIDTH 7 0
BBX 5 7 0 2
BITMAP
F8
98
A8
88
B8
B8
F8
ENDCHAR
STARTCHAR U+008E
ENCODING 142
SWIDTH 0 0
DWIDTH 0 0
BBX 0 0 0 0
BITMAP
ENDCHAR
STARTCHAR U+008F
ENCODING 143
SWIDTH 888 0
DWIDTH 8 0
BBX 7 7 0 2
BITMAP
FE
C6
92
9A
82
C6
FE
ENDCHAR
STARTCHAR U+0090
ENCODING 144
SWIDTH 1666 0
DWIDTH 15 0
BBX 3 3 6 4
BITMAP
E0
E0
E0
ENDCHAR
STARTCHAR U+0091
ENCODING 145
SWIDTH 333 0
DWIDTH 3 0
BBX 2 3 0 6
BITMAP
80
80
40
ENDCHAR
STARTCHAR U+0092
ENCODING 146
SWIDTH 333 0
DWIDTH 3 0
BBX 2 3 0 6
BITMAP
40
40
80
ENDCHAR
STARTCHAR U+0093
ENCODING 147
SWIDTH 555 0
DWIDTH 5 0
BBX 4 3 0 6
BITMAP
A0
A0
50
ENDCHAR
STARTCHAR U+0094
ENCODING 148
SWIDTH 555 0
DWIDTH 5 0
BBX 4 3 0 6
BITMAP
50
50
A0
ENDCHAR
STARTCHAR U+0095
ENCODING 149
SWIDTH 444 0
DWIDTH 4 0
BBX 3 3 0 4
BITMAP
E0
E0
E0
ENDCHAR
STARTCHAR U+0096
ENCODING 150
SWIDTH 666 0
DWIDTH 6 0
BBX 5 1 0 5
BITMAP
F8
ENDCHAR
STARTCHAR U+0097
ENCODING 151
SWIDTH 0 0
DWIDTH 0 0
BBX 0 0 0 0
BITMAP
ENDCHAR
STARTCHAR U+0098
ENCODING 152
SWIDTH 0 0
DWIDTH 0 0
BBX 0 0 0 0
BITMAP
ENDCHAR
STARTCHAR U+0099
ENCODING 153
SWIDTH 0 0
DWIDTH 0 0
BBX 0 0 0 0
BITMAP
ENDCHAR
STARTCHAR U+009A
ENCODING 154
SWIDTH 0 0
DWIDTH 0 0
BBX 0 0 0 0
BITMAP
ENDCHAR
STARTCHAR U+009B
ENCODING 155
SWIDTH 0 0
DWIDTH 0 0
BBX 0 0 0 0
BITMAP
ENDCHAR
STARTCHAR U+009C
ENCODING 156
SWIDTH 0 0
DWIDTH 0 0
BBX 0 0 0 0
BITMAP
ENDCHAR
STARTCHAR U+009D
ENCODING 157
SWIDTH 0 0
DWIDTH 0 0
BBX 0 0 0 0
BITMAP
ENDCHAR
STARTCHAR U+009E
ENCODING 158
SWIDTH 0 0
DWIDTH 0 0
BBX 0 0 0 0
BITMAP
ENDCHAR
STARTCHAR U+009F
ENCODING 159
SWIDTH 0 0
DWIDTH 0 0
BBX 0 0 0 0
BITMAP
ENDCHAR
STARTCHAR U+00A0
ENCODING 160
SWIDTH 0 0
DWIDTH 0 0
BBX 0 0 0 0
BITMAP
ENDCHAR
STARTCHAR U+00A1
ENCODING 161
SWIDTH 0 0
DWIDTH 0 0
BBX 0 0 0 0
BITMAP
ENDCHAR
STARTCHAR U+00A2
ENCODING 162
SWIDTH 0 0
DWIDTH 0 0
BBX 0 0 0 0
BITMAP
ENDCHAR
STARTCHAR U+00A3
ENCODING 163
SWIDTH 666 0
DWIDTH 6 0
BBX 5 7 0 2
BITMAP
30
48
40
F0
40
40
F8
ENDCHAR
STARTCHAR U+00A4
ENCODING 164
SWIDTH 0 0
DWIDTH 0 0
BBX 0 0 0 0
BITMAP
ENDCHAR
STARTCHAR U+00A5
ENCODING 165
SWIDTH 0 0
DWIDTH 0 0
BBX 0 0 0 0
BITMAP
ENDCHAR
STARTCHAR U+00A6
ENCODING 166
SWIDTH 0 0
DWIDTH 0 0
BBX 0 0 0 0
BITMAP
ENDCHAR
STARTCHAR U+00A7
ENCODING 167
SWIDTH 0 0
DWIDTH 0 0
BBX 0 0 0 0
BITMAP
ENDCHAR
STARTCHAR U+00A8
ENCODING 168
SWIDTH 0 0
DWIDTH 0 0
BBX 0 0 0 0
BITMAP
ENDCHAR
STARTCHAR U+00A9
ENCODING 169
SWIDTH 0 0
DWIDTH 0 0
BBX 0 0 0 0
BITMAP
ENDCHAR
STARTCHAR U+00AA
ENCODING 170
SWIDTH 0 0
DWIDTH 0 0
BBX 0 0 0 0
BITMAP
ENDCHAR
STARTCHAR U+00AB
ENCODING 171
SWIDTH 0 0
DWIDTH 0 0
BBX 0 0 0 0
BITMAP
ENDCHAR
STARTCHAR U+00AC
ENCODING 172
SWIDTH 0 0
DWIDTH 0 0
BBX 0 0 0 0
BITMAP
ENDCHAR
STARTCHAR U+00AD
ENCODING 173
SWIDTH 0 0
DWIDTH 0 0
BBX 0 0 0 0
BITMAP
ENDCHAR
STARTCHAR U+00AE
ENCODING 174
SWIDTH 0 0
DWIDTH 0 0
BBX 0 0 0 0
BITMAP
ENDCHAR
STARTCHAR U+00AF
ENCODING 175
SWIDTH 0 0
DWIDTH 0 0
BBX 0 0 0 0
BITMAP
ENDCHAR
STARTCHAR U+00B0
ENCODING 176
SWIDTH 555 0
DWIDTH 5 0
BBX 4 4 0 5
BITMAP
60
90
90
60
ENDCHAR
ENDFONT
